<?xml version="1.0" standalone="no"?>
<!DOCTYPE svg PUBLIC "-//W3C//DTD SVG 20010904//EN"
 "http://www.w3.org/TR/2001/REC-SVG-20010904/DTD/svg10.dtd">
<svg version="1.0" xmlns="http://www.w3.org/2000/svg"
 width="1920.000000pt" height="976.000000pt" viewBox="0 0 1920.000000 976.000000"
 preserveAspectRatio="xMidYMid meet">

<g transform="translate(0.000000,976.000000) scale(0.100000,-0.100000)"
fill="#000000" stroke="none">
<path d="M13902 9052 l-542 -2 -16 -40 c-9 -22 -20 -40 -26 -40 -5 0 -7 -4 -4
-9 8 -13 -69 -192 -79 -184 -4 5 -5 3 -2 -3 6 -11 -28 -102 -42 -114 -3 -3 -7
-12 -9 -20 -6 -30 -55 -150 -62 -150 -4 0 -7 -6 -7 -13 0 -27 -77 -196 -86
-190 -6 3 -7 1 -3 -5 8 -13 -22 -92 -36 -92 -5 0 -7 -4 -3 -10 3 -5 -41 -118
-98 -252 -57 -134 -121 -284 -142 -335 -21 -51 -43 -89 -48 -86 -6 3 -7 1 -3
-5 8 -13 -65 -193 -76 -186 -4 3 -6 -1 -3 -8 3 -7 -32 -101 -78 -208 -46 -107
-98 -232 -117 -277 -18 -45 -38 -79 -43 -76 -6 3 -7 1 -3 -5 6 -10 -118 -320
-133 -332 -3 -3 -7 -12 -9 -20 -7 -33 -210 -512 -220 -520 -4 -3 -7 -9 -7 -15
0 -5 -9 -32 -19 -58 -14 -35 -22 -45 -29 -35 -6 9 -7 7 -2 -7 8 -24 -174 -457
-189 -448 -5 3 -6 1 -2 -6 4 -6 -28 -96 -73 -202 -45 -104 -81 -194 -81 -199
0 -6 -4 -10 -10 -10 -5 0 -9 -3 -8 -7 5 -13 -33 -103 -43 -103 -5 0 -9 5 -9
12 0 6 -3 8 -6 5 -4 -4 -2 -13 4 -20 9 -11 4 -32 -22 -93 -18 -43 -59 -140
-91 -213 -31 -74 -64 -141 -73 -149 -9 -7 -11 -10 -3 -6 10 5 13 3 8 -7 -3 -8
-25 -60 -48 -116 -24 -56 -47 -99 -52 -96 -6 3 -7 1 -3 -5 9 -15 -45 -143 -57
-135 -6 3 -7 1 -3 -5 3 -6 -32 -102 -79 -214 -47 -112 -111 -264 -143 -340
-31 -75 -61 -134 -66 -131 -5 4 -6 1 -2 -5 4 -7 -8 -47 -27 -89 -19 -43 -60
-141 -92 -218 -32 -77 -61 -142 -64 -145 -3 -3 -7 -12 -9 -20 -2 -8 -8 -17
-13 -18 -5 -2 -7 -8 -4 -13 7 -11 -13 -49 -34 -67 -9 -8 -10 -11 -3 -7 6 3 12
5 12 3 0 -2 -23 -57 -50 -123 -28 -66 -69 -164 -92 -217 -22 -54 -45 -98 -50
-98 -5 0 -7 -4 -4 -9 8 -12 -55 -162 -65 -155 -5 3 -6 -2 -3 -10 3 -9 2 -16
-4 -16 -5 0 -9 -6 -8 -12 2 -20 -128 -327 -136 -322 -4 3 -5 -1 -2 -9 3 -8 -1
-21 -8 -28 -7 -8 -13 -18 -13 -24 0 -25 -48 -124 -58 -118 -6 3 -7 1 -3 -6 4
-6 -24 -87 -63 -179 -39 -92 -98 -232 -131 -312 -34 -80 -65 -147 -71 -148 -5
-2 -7 -7 -4 -12 6 -10 -76 -201 -84 -196 -3 2 -6 -7 -6 -20 l0 -24 2311 0
2311 0 128 298 c71 163 163 380 205 482 43 102 103 244 134 315 98 221 142
324 209 485 36 85 109 256 162 380 54 124 123 288 155 365 32 77 106 250 165
385 59 135 124 288 145 340 35 88 128 304 222 515 22 50 71 164 108 255 37 91
129 309 204 485 76 176 169 394 208 485 39 91 104 241 145 334 41 93 85 197
98 231 21 58 58 143 227 530 39 88 79 184 91 215 11 30 64 156 117 280 113
260 185 427 300 700 45 107 113 263 150 345 37 83 71 162 75 175 4 14 81 197
171 407 90 210 164 386 164 391 0 8 -2647 11 -4118 4z"/>
<path d="M10380 7830 c0 -5 5 -10 10 -10 6 0 10 5 10 10 0 6 -4 10 -10 10 -5
0 -10 -4 -10 -10z"/>
<path d="M11460 4790 c0 -5 5 -10 10 -10 6 0 10 5 10 10 0 6 -4 10 -10 10 -5
0 -10 -4 -10 -10z"/>
<path d="M9017 4586 c-4 -10 -1 -13 8 -9 8 3 12 9 9 14 -7 12 -11 11 -17 -5z"/>
<path d="M11280 4310 c0 -5 5 -10 10 -10 6 0 10 5 10 10 0 6 -4 10 -10 10 -5
0 -10 -4 -10 -10z"/>
<path d="M10920 3370 c0 -5 5 -10 11 -10 5 0 7 5 4 10 -3 6 -8 10 -11 10 -2 0
-4 -4 -4 -10z"/>
<path d="M10805 3141 c-3 -5 -2 -12 3 -15 5 -3 9 1 9 9 0 17 -3 19 -12 6z"/>
<path d="M7976 2102 c-3 -5 1 -9 9 -9 8 0 12 4 9 9 -3 4 -7 8 -9 8 -2 0 -6 -4
-9 -8z"/>
<path d="M7555 1230 c-3 -6 1 -7 9 -4 18 7 21 14 7 14 -6 0 -13 -4 -16 -10z"/>
</g>
</svg>
